<?xml version="1.0" standalone="no"?>
<!DOCTYPE svg PUBLIC "-//W3C//DTD SVG 20010904//EN"
 "http://www.w3.org/TR/2001/REC-SVG-20010904/DTD/svg10.dtd">
<svg version="1.0" xmlns="http://www.w3.org/2000/svg"
 width="379.000000pt" height="203.000000pt" viewBox="0 0 379.000000 203.000000"
 preserveAspectRatio="xMidYMid meet">
<metadata>
Created by potrace 1.16, written by Peter Selinger 2001-2019
</metadata>
<g transform="translate(0.000000,203.000000) scale(0.100000,-0.100000)"
fill="#000000" stroke="none">
<path d="M0 1714 l0 -316 62 58 c274 253 574 415 813 439 125 12 280 -20 449
-94 27 -12 149 -75 271 -141 590 -318 985 -467 1565 -590 157 -34 558 -100
602 -100 l28 0 0 530 0 530 -1895 0 -1895 0 0 -316z"/>
<path d="M765 1770 c-186 -49 -447 -201 -660 -385 l-104 -90 0 -647 -1 -648
1895 0 1895 0 0 449 0 448 -72 7 c-165 16 -454 59 -618 92 -513 102 -884 230
-1330 458 -484 247 -565 286 -654 311 -110 31 -245 33 -351 5z m-80 -720 l-1
-35 -112 -3 -112 -3 0 -54 0 -55 105 0 105 0 0 -40 0 -40 -105 0 -105 0 0 -80
0 -80 -45 0 -45 0 0 215 0 216 157 -3 158 -3 0 -35z m135 -135 l0 -175 110 0
110 0 0 -40 0 -40 -155 0 -155 0 0 208 c0 115 3 212 7 215 3 4 24 7 45 7 l38
0 0 -175z m615 -39 c52 -115 95 -211 95 -213 0 -1 -20 -3 -45 -3 -42 0 -46 2
-65 40 l-20 40 -111 0 -111 0 -15 -40 c-16 -39 -17 -40 -64 -40 l-48 0 18 43
c10 23 41 92 68 152 28 61 63 138 78 173 l28 63 49 -3 48 -3 95 -209z m395
179 l0 -34 -67 -3 -68 -3 -3 -178 -2 -178 -43 3 -42 3 -2 175 -2 175 -65 0
-66 0 0 38 0 37 180 0 180 0 0 -35z m-1164 -510 c19 -8 46 -23 59 -33 l24 -19
-27 -27 -28 -26 -39 21 c-79 41 -179 2 -203 -79 -16 -53 -15 -70 7 -118 32
-69 125 -95 203 -55 l37 18 27 -28 27 -28 -24 -20 c-62 -51 -208 -54 -280 -6
-109 71 -120 263 -21 358 55 52 166 72 238 42z m206 -137 c3 -90 9 -153 17
-169 27 -54 124 -68 165 -24 29 32 36 70 36 218 l0 117 40 0 40 0 0 -153 c0
-141 -2 -158 -23 -198 -50 -97 -213 -122 -296 -46 -50 46 -61 90 -61 250 l0
147 39 0 39 0 4 -142z m664 123 c54 -24 78 -74 71 -144 -4 -51 -26 -80 -81
-112 -16 -9 -11 -18 43 -77 34 -36 61 -69 61 -72 0 -3 -22 -6 -49 -6 -48 0
-50 1 -111 70 -57 64 -65 70 -101 70 l-39 0 0 -70 0 -70 -40 0 -40 0 0 215 0
215 123 0 c97 0 130 -4 163 -19z m239 -103 c26 -68 55 -141 64 -163 l17 -40
64 163 63 162 49 0 48 0 -15 -37 c-9 -21 -50 -120 -92 -220 l-75 -183 -38 0
c-21 0 -42 6 -47 13 -12 15 -173 404 -173 417 0 6 20 10 44 10 l44 0 47 -122z
m675 82 l0 -40 -120 0 -120 0 0 -50 0 -50 115 0 115 0 0 -40 0 -40 -115 0
-115 0 0 -45 0 -45 120 0 120 0 0 -40 0 -40 -165 0 -165 0 0 215 0 215 165 0
165 0 0 -40z"/>
<path d="M1330 405 l0 -65 79 0 c74 0 81 2 100 27 23 28 21 54 -7 86 -12 13
-31 17 -94 17 l-78 0 0 -65z"/>
</g>
</svg>
